<?xml version="1.0" encoding="UTF-8"?>
<svg xmlns="http://www.w3.org/2000/svg" width="1024" height="1024" viewBox="0 0 1024 1024" fill="none">
	<defs>
		<!-- Gradients -->
		<linearGradient id="gPlay" x1="256" y1="256" x2="768" y2="768" gradientUnits="userSpaceOnUse">
			<stop offset="0" stop-color="#FF4FD8"/>
			<stop offset="0.5" stop-color="#7B4DFF"/>
			<stop offset="1" stop-color="#00D2FF"/>
		</linearGradient>

		<linearGradient id="gRing" x1="180" y1="760" x2="860" y2="320" gradientUnits="userSpaceOnUse">
			<stop offset="0" stop-color="#FF4FD8"/>
			<stop offset="0.45" stop-color="#7B4DFF"/>
			<stop offset="1" stop-color="#00D2FF"/>
		</linearGradient>

		<linearGradient id="gInner" x1="420" y1="410" x2="640" y2="640" gradientUnits="userSpaceOnUse">
			<stop offset="0" stop-color="#FFFFFF" stop-opacity="0.95"/>
			<stop offset="1" stop-color="#FFFFFF" stop-opacity="0.65"/>
		</linearGradient>

		<!-- Glow filter -->
		<filter id="fGlow" x="-40%" y="-40%" width="180%" height="180%">
			<feGaussianBlur stdDeviation="14" result="blur"/>
			<feColorMatrix in="blur" type="matrix"
			  values="1 0 0 0 0
                0 1 0 0 0
                0 0 1 0 0
                0 0 0 0.7 0" result="glow"/>
			<feMerge>
				<feMergeNode in="glow"/>
				<feMergeNode in="SourceGraphic"/>
			</feMerge>
		</filter>

		<!-- Soft shadow -->
		<filter id="fShadow" x="-30%" y="-30%" width="160%" height="160%">
			<feGaussianBlur in="SourceAlpha" stdDeviation="10" result="shadow"/>
			<feOffset dx="0" dy="10" result="offset"/>
			<feColorMatrix in="offset" type="matrix"
			  values="0 0 0 0 0
                0 0 0 0 0
                0 0 0 0 0
                0 0 0 0.35 0" result="shadowColor"/>
			<feMerge>
				<feMergeNode in="shadowColor"/>
				<feMergeNode in="SourceGraphic"/>
			</feMerge>
		</filter>

		<!-- Ring glow -->
		<filter id="fRingGlow" x="-60%" y="-60%" width="220%" height="220%">
			<feGaussianBlur stdDeviation="8" result="b"/>
			<feColorMatrix in="b" type="matrix"
			  values="1 0 0 0 0
                0 1 0 0 0
                0 0 1 0 0
                0 0 0 0.55 0" result="bg"/>
			<feMerge>
				<feMergeNode in="bg"/>
				<feMergeNode in="SourceGraphic"/>
			</feMerge>
		</filter>
	</defs>

	<!-- Orbit ring -->
	<g filter="url(#fRingGlow)">
		<!-- Outer ring -->
		<path d="M 228 620
             C 250 760, 420 860, 560 834
             C 720 804, 834 676, 816 530
             C 798 385, 660 292, 516 308
             C 372 324, 238 428, 228 620 Z"
			  stroke="url(#gRing)" stroke-width="34" stroke-linecap="round" stroke-linejoin="round" fill="none" opacity="0.95"/>
		<!-- Inner accent ring -->
		<path d="M 300 630
             C 316 730, 446 804, 560 784
             C 690 760, 784 660, 770 540
             C 756 420, 642 350, 520 364
             C 398 378, 306 454, 300 630 Z"
			  stroke="url(#gRing)" stroke-width="18" stroke-linecap="round" stroke-linejoin="round" fill="none" opacity="0.55"/>
	</g>

	<!-- Play button (rounded triangle) -->
	<g filter="url(#fShadow)">
		<!-- Rounded triangular blob -->
		<path d="M 392 330
             C 350 330, 324 360, 324 402
             L 324 622
             C 324 664, 350 694, 392 694
             L 612 694
             C 654 694, 684 668, 684 626
             L 684 402
             C 684 360, 654 330, 612 330
             Z"
			  fill="url(#gPlay)" filter="url(#fGlow)"/>
		<!-- Subtle highlight -->
		<path d="M 350 400
             C 350 372, 372 350, 400 350
             L 606 350
             C 634 350, 656 372, 656 400
             L 656 410
             C 656 392, 642 378, 624 378
             L 382 378
             C 364 378, 350 392, 350 410 Z"
			  fill="#FFFFFF" opacity="0.18"/>
		<!-- Inner play triangle -->
		<path d="M 470 444
             L 470 580
             C 470 595, 487 604, 500 596
             L 612 528
             C 625 520, 625 504, 612 496
             L 500 428
             C 487 420, 470 429, 470 444 Z"
			  fill="url(#gInner)"/>
	</g>

	<!-- Sparkles / particles -->
	<g opacity="0.95">
		<circle cx="290" cy="520" r="7" fill="#FF4FD8"/>
		<circle cx="318" cy="462" r="4" fill="#7B4DFF"/>
		<circle cx="760" cy="540" r="6" fill="#00D2FF"/>
		<circle cx="706" cy="430" r="4" fill="#7B4DFF"/>
		<circle cx="606" cy="260" r="5" fill="#00D2FF" opacity="0.85"/>
		<circle cx="430" cy="792" r="5" fill="#FF4FD8" opacity="0.85"/>
		<circle cx="540" cy="820" r="3" fill="#FFFFFF" opacity="0.75"/>
		<circle cx="820" cy="610" r="3" fill="#FFFFFF" opacity="0.65"/>
	</g>
</svg>
